<?xml version="1.0" encoding="UTF-8"?>
<svg width="128px" height="128px" viewBox="0 0 128 128" version="1.1" xmlns="http://www.w3.org/2000/svg" xmlns:xlink="http://www.w3.org/1999/xlink">
    <!-- Generator: Sketch 43.2 (39069) - http://www.bohemiancoding.com/sketch -->
    <title>active</title>
    <desc>Created with Sketch.</desc>
    <defs></defs>
    <g id="Page-1" stroke="none" stroke-width="1" fill="none" fill-rule="evenodd">
        <g id="active" fill="#000000">
            <path d="M100.207865,19.2199271 C96.9449275,19.2199271 93.7046977,19.7920153 90.4870787,20.936209 C87.2694596,22.0804026 84.1425245,23.4991815 81.1061798,25.1925881 C78.069835,26.8859947 75.1921484,28.7395606 72.4730337,30.7533414 C69.753919,32.7671223 67.3520703,34.6893388 65.2674157,36.5200486 C66.8988846,38.4422939 68.6889416,40.0212575 70.6376404,41.2569866 C72.5863393,42.4927158 74.5803269,43.4995911 76.6196629,44.2776428 C78.658999,45.0556945 80.6983044,45.6048992 82.7376404,45.9252734 C84.7769765,46.2456476 86.6576693,46.4058323 88.3797753,46.4058323 C90.9176157,46.4058323 93.5460538,46.0625794 96.2651685,45.3760632 C98.9842833,44.689547 101.499427,43.6597882 103.810674,42.2867558 C106.121922,40.9137234 108.025273,39.1516916 109.520787,37.0006075 C111.0163,34.8495235 111.764045,32.2636846 111.764045,29.2430134 C111.764045,27.320768 111.44682,25.6960374 110.81236,24.3687728 C110.177899,23.0415081 109.316859,22.0117493 108.229213,21.2794654 C107.141568,20.5471814 105.917984,20.0208602 104.558427,19.700486 C103.19887,19.3801118 101.748697,19.2199271 100.207865,19.2199271 Z M69.8898876,8.37302552 C67.1707729,9.47145142 64.7236064,11.3021338 62.5483146,13.8651276 C60.3730228,16.4281214 59.2853933,19.3114461 59.2853933,22.5151883 C59.2853933,23.9797562 59.3760291,25.2841174 59.5573034,26.4283111 C59.7385777,27.5725047 60.055803,28.6022635 60.5089888,29.5176185 C67.0348641,26.3138762 73.8325489,23.5220856 80.9022472,21.1421628 C87.9719455,18.76224 95.2228093,17.5722965 102.655056,17.5722965 C104.558436,17.5722965 106.756355,17.7553647 109.248876,18.1215067 C111.741398,18.4876487 114.07527,19.151271 116.250562,20.1123937 C118.425854,21.0735163 120.261228,22.4236446 121.756742,24.162819 C123.252255,25.9019933 124,28.0988122 124,30.7533414 C124,34.4147611 122.935029,37.435387 120.805056,39.8153098 C118.675083,42.1952326 116.023986,44.0716821 112.851685,45.4447145 C109.679385,46.8177468 106.32586,47.7788551 102.791011,48.328068 C99.2561621,48.877281 96.0385913,49.1518834 93.1382022,49.1518834 C87.4280613,49.1518834 82.1711851,48.3280763 77.3674157,46.6804374 C72.5636464,45.0327986 68.1224923,42.0579397 64.0438202,37.7557716 C59.330688,42.6986881 55.3653719,48.0534341 52.1477528,53.8201701 C48.9301337,59.5869061 47.3213483,65.8569933 47.3213483,72.6306197 C47.3213483,74.4613295 47.5252789,76.2920119 47.9331461,78.1227217 C48.3410133,79.9534316 48.9754639,81.5781622 49.8365169,82.9969623 C50.6975698,84.4157625 51.8531763,85.5828225 53.3033708,86.4981774 C54.7535653,87.4135323 56.5209634,87.8712029 58.605618,87.8712029 C59.8745382,87.8712029 61.3247109,87.5966006 62.9561798,87.0473876 C64.5876486,86.4981747 66.1284572,85.8345523 67.5786517,85.0565006 C69.0288462,84.2784489 70.2977474,83.4317583 71.3853933,82.5164034 C72.4730391,81.6010485 73.1528076,80.7314743 73.4247191,79.9076549 C74.3310907,76.7954482 75.3054255,74.1409587 76.3477528,71.9441069 C77.3900801,69.7472551 78.6816402,67.9394563 80.2224719,66.5206561 C81.7633036,65.101856 83.7346322,64.0492136 86.1365169,63.3626974 C88.5384015,62.6761813 91.5520418,62.3329283 95.1775281,62.3329283 C97.8060057,62.3329283 99.1202247,62.7905989 99.1202247,63.7059538 C99.1202247,63.8890248 98.6217278,65.4222213 97.6247191,68.3055893 C96.6277104,71.1889573 95.0415839,74.7130209 92.8662921,78.8778858 C90.6910004,83.0427507 87.8586317,87.5279225 84.3691011,92.3335358 C80.8795706,97.1391492 76.6196881,101.601437 71.5893258,105.720535 C66.5589636,109.839632 60.7582726,113.249278 54.1870787,115.949575 C47.6158847,118.649872 40.1157725,120 31.6865169,120 C28.6954907,120 25.5232377,119.565213 22.1696629,118.695626 C18.8160881,117.826039 15.711812,116.521677 12.8567416,114.782503 C10.0016711,113.043329 7.64514038,110.84651 5.78707865,108.191981 C3.92901693,105.537451 3,102.425291 3,98.855407 C3,97.1162327 3.20393054,95.399968 3.61179775,93.7065614 C4.01966496,92.0131548 4.67677449,90.4799583 5.58314607,89.1069259 C6.48951764,87.7338935 7.66778301,86.6354841 9.11797753,85.8116646 C10.568172,84.9878452 12.2902522,84.5759417 14.2842697,84.5759417 C16.5501986,84.5759417 18.589504,85.3082146 20.4022472,86.7727825 C22.2149903,88.2373504 23.1213483,90.1595669 23.1213483,92.5394897 C23.1213483,95.1024835 22.350944,97.2077682 20.8101124,98.855407 C19.2692807,100.503046 17.2299752,101.326853 14.6921348,101.326853 C14.238949,104.530595 14.3975617,107.207968 15.1679775,109.359052 C15.9383934,111.510136 17.1846356,113.249285 18.9067416,114.576549 C20.6288476,115.903814 22.690812,116.864922 25.0926966,117.459903 C27.4945813,118.054883 30.1003605,118.352369 32.9101124,118.352369 C37.8045189,118.352369 42.2456729,117.25396 46.2337079,115.057108 C50.2217428,112.860256 53.8245157,110.045582 57.0421348,106.613001 C60.2597539,103.18042 63.1374405,99.4046378 65.6752809,95.2855407 C68.2131213,91.1664436 70.4336983,87.1389423 72.3370787,83.2029162 L72.0651685,83.2029162 C70.614974,84.484413 68.8702349,85.7430072 66.8308989,86.9787363 C64.7915628,88.2144655 62.6616216,89.3128749 60.4410112,90.2739976 C58.2204009,91.2351202 55.9545059,91.9902767 53.6432584,92.5394897 C51.3320109,93.0887026 49.1794107,93.363305 47.1853933,93.363305 C40.9314294,93.363305 36.2183679,91.5097391 33.0460674,87.8025516 C29.8737669,84.0953642 28.2876404,79.2211724 28.2876404,73.1798299 C28.2876404,68.4199843 29.1713395,63.9348125 30.938764,59.7241798 C32.7061886,55.5135472 35.0400604,51.6004636 37.9404494,47.9848117 C40.8408385,44.3691597 44.1263861,41.0739314 47.797191,38.0990279 C51.4679959,35.1241245 55.2067225,32.5382856 59.0134831,30.3414338 C58.5602974,29.1514724 58.2204131,27.8928782 57.9938202,26.5656136 C57.7672273,25.238349 57.6539326,23.9339878 57.6539326,22.6524909 C57.6539326,20.821781 57.9938168,19.0597493 58.6735955,17.3663426 C59.3533742,15.672936 60.2597322,14.1397396 61.3926966,12.7667072 C62.5256611,11.3936748 63.8398802,10.2037312 65.3353933,9.19684083 C66.8309064,8.18995041 68.349056,7.45767746 69.8898876,7 L69.8898876,8.37302552 Z" id="G"></path>
        </g>
    </g>
</svg>